<svg xmlns="http://www.w3.org/2000/svg" viewBox="0 0 160.7 37.77"><defs><style>.cls-1{fill:#55b9dd;}</style></defs><g id="圖層_2" data-name="圖層 2"><g id="Layer_2" data-name="Layer 2"><path class="cls-1" d="M64.35,28.68V10.51h3.81a13.9,13.9,0,0,1,4.33.54,8.32,8.32,0,0,1,3.1,1.8,8.71,8.71,0,0,1,2.81,6.74,8.84,8.84,0,0,1-6,8.58,14,14,0,0,1-4.27.51Zm2.74-2.58h1.24a10.29,10.29,0,0,0,3.07-.39,6.29,6.29,0,0,0,2.21-1.3,6.23,6.23,0,0,0,2-4.82,6.28,6.28,0,0,0-2-4.84,7.55,7.55,0,0,0-5.3-1.66H67.09Z"/><path class="cls-1" d="M91.77,23.57H83.56a3.5,3.5,0,0,0,.92,2.25,2.8,2.8,0,0,0,2.08.82,2.74,2.74,0,0,0,1.64-.47,6.62,6.62,0,0,0,1.44-1.74l2.24,1.25a9.8,9.8,0,0,1-1.09,1.51,5.9,5.9,0,0,1-1.24,1,5.1,5.1,0,0,1-1.42.6,7.27,7.27,0,0,1-1.66.19,5.4,5.4,0,0,1-4.12-1.65A6.2,6.2,0,0,1,80.8,23a6.36,6.36,0,0,1,1.5-4.4,5.75,5.75,0,0,1,8,0A6.37,6.37,0,0,1,91.79,23Zm-2.71-2.16a2.53,2.53,0,0,0-2.67-2.12,2.67,2.67,0,0,0-.91.15,2.32,2.32,0,0,0-.77.42,2.5,2.5,0,0,0-.59.66,3.11,3.11,0,0,0-.38.89Z"/><path class="cls-1" d="M104.51,19.22H112v.6a12.45,12.45,0,0,1-.48,3.62A7.93,7.93,0,0,1,110,26.17,8.23,8.23,0,0,1,103.51,29,8.81,8.81,0,0,1,97,26.26a9.08,9.08,0,0,1-2.72-6.63,9.42,9.42,0,0,1,9.49-9.47,9.22,9.22,0,0,1,4,.87,11.59,11.59,0,0,1,3.47,2.82l-1.95,1.87a6.64,6.64,0,0,0-5.45-3,6.52,6.52,0,0,0-4.84,2,6.63,6.63,0,0,0-2,4.89,6.82,6.82,0,0,0,6.59,6.82,5.45,5.45,0,0,0,3.63-1.36,4.83,4.83,0,0,0,1.8-3.3h-4.53Z"/><path class="cls-1" d="M115,17.22h2.65v1a5.11,5.11,0,0,1,1.29-1,3.07,3.07,0,0,1,1.37-.29,4.31,4.31,0,0,1,2.18.68L121.24,20a2.54,2.54,0,0,0-1.47-.55c-1.44,0-2.16,1.09-2.16,3.28v5.94H115Z"/><path class="cls-1" d="M132.25,17.22h2.66V28.68h-2.66v-1.2a5.07,5.07,0,0,1-7.44-.19,6.38,6.38,0,0,1-1.54-4.38,6.16,6.16,0,0,1,1.54-4.29,5,5,0,0,1,3.86-1.72,4.84,4.84,0,0,1,3.58,1.65ZM126,22.91a4,4,0,0,0,.88,2.68,2.91,2.91,0,0,0,2.29,1.05,3,3,0,0,0,2.37-1,3.91,3.91,0,0,0,.91-2.66,3.91,3.91,0,0,0-.91-2.66,3,3,0,0,0-2.35-1,2.91,2.91,0,0,0-2.28,1A3.79,3.79,0,0,0,126,22.91Z"/><path class="cls-1" d="M139.89,17.22l3,6.43,3-6.43h3l-5.95,12.24-5.91-12.24Z"/><path class="cls-1" d="M160.59,23.57h-8.21a3.5,3.5,0,0,0,.92,2.25,2.8,2.8,0,0,0,2.08.82,2.74,2.74,0,0,0,1.64-.47,6.82,6.82,0,0,0,1.45-1.74l2.23,1.25a9.18,9.18,0,0,1-1.09,1.51,5.9,5.9,0,0,1-1.24,1,5.1,5.1,0,0,1-1.42.6,7.27,7.27,0,0,1-1.66.19,5.4,5.4,0,0,1-4.12-1.65,6.2,6.2,0,0,1-1.55-4.4,6.36,6.36,0,0,1,1.5-4.4,5.75,5.75,0,0,1,8,0A6.37,6.37,0,0,1,160.61,23Zm-2.71-2.16a2.53,2.53,0,0,0-2.67-2.12,2.67,2.67,0,0,0-.91.15,2.32,2.32,0,0,0-.77.42,2.5,2.5,0,0,0-.59.66,3.11,3.11,0,0,0-.38.89Z"/><path class="cls-1" d="M35.32,28.52l-1.26,1.26-7-7-1.31-1.31L12.18,7.9,7.38,3.1a23.08,23.08,0,0,0,3.43,33.34L9.48,37.77A24.88,24.88,0,0,1,6.14,1.86c.39-.45.8-.88,1.22-1.3Z"/><path class="cls-1" d="M43.27,18.32a18.29,18.29,0,0,1-4,11.42A16.71,16.71,0,0,1,38,31.15l0,0c-.42.43-.86.83-1.31,1.21a18.46,18.46,0,0,1-5.84,3.28,17.72,17.72,0,0,1-3.49.81,17.42,17.42,0,0,1-2.41.16,18.15,18.15,0,0,1-7.45-1.58l1.32-1.32A16.55,16.55,0,0,0,35,31.49l.41-.33A15,15,0,0,0,36.75,30s0,0,0,0A14.22,14.22,0,0,0,38,28.48,16.52,16.52,0,0,0,14.86,5.32L13.53,4A18.32,18.32,0,0,1,43.27,18.32Z"/><polygon class="cls-1" points="43.27 36.47 42.01 37.73 38.15 33.87 39.41 32.61 41.22 34.42 42.54 35.74 43.27 36.47"/></g></g></svg>