<svg xmlns="http://www.w3.org/2000/svg" viewBox="0 0 175.43 33.16"><defs><style>.cls-1{fill:#55b9dd;}</style></defs><g id="圖層_2" data-name="圖層 2"><g id="Layer_2" data-name="Layer 2"><path class="cls-1" d="M0,32.61V2.8H6.26a22.79,22.79,0,0,1,7.1.89,13.29,13.29,0,0,1,5.08,2.95,14.28,14.28,0,0,1,4.62,11.07,14.15,14.15,0,0,1-4.81,11.12,14,14,0,0,1-5.06,3,22.86,22.86,0,0,1-7,.83Zm4.5-4.22h2a17.08,17.08,0,0,0,5-.64,10.22,10.22,0,0,0,7-10,10.4,10.4,0,0,0-3.28-8C13.27,7.94,10.36,7,6.53,7h-2Z"/><path class="cls-1" d="M45,24.23H31.53A5.71,5.71,0,0,0,33,27.92a4.6,4.6,0,0,0,3.42,1.35,4.41,4.41,0,0,0,2.68-.77,10.87,10.87,0,0,0,2.38-2.86l3.67,2.05a14.7,14.7,0,0,1-1.8,2.48,9.41,9.41,0,0,1-2,1.7,8.12,8.12,0,0,1-2.33,1,11.76,11.76,0,0,1-2.73.31,8.88,8.88,0,0,1-6.76-2.71A10.16,10.16,0,0,1,27,23.23,10.41,10.41,0,0,1,29.47,16a8.5,8.5,0,0,1,6.6-2.72,8.46,8.46,0,0,1,6.57,2.64A10.44,10.44,0,0,1,45,23.21Zm-4.46-3.55a4.15,4.15,0,0,0-4.38-3.47,4.52,4.52,0,0,0-1.49.24,4.3,4.3,0,0,0-1.26.69,4.45,4.45,0,0,0-1,1.09,5.12,5.12,0,0,0-.62,1.45Z"/><path class="cls-1" d="M63.63,13.81H68v18.8H63.63v-2a8.35,8.35,0,0,1-12.23-.31,10.54,10.54,0,0,1-2.53-7.19,10.2,10.2,0,0,1,2.53-7,8.19,8.19,0,0,1,6.34-2.81A8,8,0,0,1,63.63,16ZM53.32,23.15a6.59,6.59,0,0,0,1.44,4.41,4.75,4.75,0,0,0,3.75,1.71,5,5,0,0,0,3.9-1.66,6.42,6.42,0,0,0,1.49-4.36,6.42,6.42,0,0,0-1.49-4.36,4.91,4.91,0,0,0-3.86-1.68A4.81,4.81,0,0,0,54.8,18.9,6.29,6.29,0,0,0,53.32,23.15Z"/><path class="cls-1" d="M78,17.86V32.61H73.61V17.86H71.76v-4h1.85V6.91H78v6.9h3.38v4Z"/><path class="cls-1" d="M85.08,0h4.34V15.37a7.5,7.5,0,0,1,5.12-2.08,6.59,6.59,0,0,1,5.1,2.06q1.62,1.8,1.62,5.74V32.61H96.92V21.49a5.32,5.32,0,0,0-.8-3.27,3.09,3.09,0,0,0-2.58-1,3.57,3.57,0,0,0-3.21,1.4,9.75,9.75,0,0,0-.91,4.91v9.09H85.08Z"/><path class="cls-1" d="M121.4,14.62v5.77a10.63,10.63,0,0,0-2.66-2.49,5.22,5.22,0,0,0-2.73-.69,5.38,5.38,0,0,0-4.07,1.71,6,6,0,0,0-1.62,4.31,6.16,6.16,0,0,0,1.56,4.34,5.26,5.26,0,0,0,4,1.7,5.53,5.53,0,0,0,2.76-.67,11,11,0,0,0,2.72-2.55v5.73a11.32,11.32,0,0,1-5.29,1.38,10.13,10.13,0,0,1-7.3-2.82,9.46,9.46,0,0,1-2.93-7,9.54,9.54,0,0,1,3-7.11,10.06,10.06,0,0,1,7.3-2.89A10.89,10.89,0,0,1,121.4,14.62Z"/><path class="cls-1" d="M124.72,23.08a9.38,9.38,0,0,1,2.92-6.94,10.31,10.31,0,0,1,14.25,0,9.6,9.6,0,0,1,2.9,7.07,9.52,9.52,0,0,1-2.92,7.09,10,10,0,0,1-7.2,2.84,9.58,9.58,0,0,1-7.09-2.9A9.77,9.77,0,0,1,124.72,23.08Zm4.45.07a6.35,6.35,0,0,0,1.5,4.46,5.86,5.86,0,0,0,8.15,0,6.15,6.15,0,0,0,1.53-4.38,6.15,6.15,0,0,0-1.53-4.38,5.78,5.78,0,0,0-8.11,0A6,6,0,0,0,129.17,23.15Z"/><path class="cls-1" d="M148.73,6a2.66,2.66,0,0,1,.83-2,2.81,2.81,0,0,1,4,0,2.64,2.64,0,0,1,.83,2,2.7,2.7,0,0,1-.83,2,2.64,2.64,0,0,1-2,.83,2.7,2.7,0,0,1-2-.83A2.72,2.72,0,0,1,148.73,6Zm5,7.82v18.8h-4.35V13.81Z"/><path class="cls-1" d="M159.23,13.81h4.37v1.73a7.12,7.12,0,0,1,5.13-2.25,6.47,6.47,0,0,1,5.12,2.06q1.58,1.76,1.58,5.74V32.61h-4.36V22.11a6.94,6.94,0,0,0-.77-3.84,3.14,3.14,0,0,0-2.75-1.08,3.36,3.36,0,0,0-3.07,1.42c-.59.94-.88,2.59-.88,4.93v9.07h-4.37Z"/></g></g></svg>