<svg xmlns="http://www.w3.org/2000/svg" viewBox="0 0 96.13 83.9"><defs><style>.cls-1{fill:#55b9dd;}</style></defs><g id="圖層_2" data-name="圖層 2"><g id="Layer_2" data-name="Layer 2"><path class="cls-1" d="M78.47,63.37l-2.8,2.79-15.5-15.5-2.93-2.93L27.07,17.56,16.4,6.9a51.25,51.25,0,0,0,7.62,74l-2.95,3A55.27,55.27,0,0,1,13.64,4.13c.87-1,1.77-1.95,2.71-2.88Z"/><path class="cls-1" d="M96.12,40.71a40.55,40.55,0,0,1-8.86,25.35,37.83,37.83,0,0,1-2.79,3.15l-.07.08A38.77,38.77,0,0,1,81.48,72a40.47,40.47,0,0,1-13,7.29,39.83,39.83,0,0,1-7.74,1.81,41.21,41.21,0,0,1-5.35.35A40.25,40.25,0,0,1,38.86,77.9L41.78,75a36.51,36.51,0,0,0,13.63,2.62,36.12,36.12,0,0,0,10.3-1.48A36.55,36.55,0,0,0,77.81,70l.92-.72a39.1,39.1,0,0,0,2.91-2.69.32.32,0,0,0,.08-.09,33.33,33.33,0,0,0,2.76-3.17A36.69,36.69,0,0,0,33,11.82l-3-3A40.72,40.72,0,0,1,96.12,40.71Z"/><polygon class="cls-1" points="96.13 81.02 93.33 83.82 84.75 75.25 87.55 72.45 91.58 76.47 94.51 79.41 96.13 81.02"/></g></g></svg>