<svg xmlns="http://www.w3.org/2000/svg" xmlns:xlink="http://www.w3.org/1999/xlink" viewBox="0 0 188.39 120.74"><defs><style>.cls-1{fill:#55b9dd;}.cls-2{fill:#fbfcff;}.cls-3{fill:url(#linear-gradient);}.cls-4{fill:url(#linear-gradient-2);}.cls-5{fill:url(#linear-gradient-3);}.cls-6{fill:url(#linear-gradient-4);}</style><linearGradient id="linear-gradient" x1="168.65" y1="59.53" x2="168.2" y2="13.04" gradientUnits="userSpaceOnUse"><stop offset="0" stop-color="#55b9dd"/><stop offset="1" stop-color="#fbfcff"/></linearGradient><linearGradient id="linear-gradient-2" x1="154.86" y1="24.75" x2="154.67" y2="5.39" gradientUnits="userSpaceOnUse"><stop offset="0" stop-color="#55b9dd"/><stop offset="0.01" stop-color="#5abbde"/><stop offset="0.07" stop-color="#7fcae6"/><stop offset="0.13" stop-color="#a1d8ed"/><stop offset="0.2" stop-color="#bde3f2"/><stop offset="0.28" stop-color="#d4ecf7"/><stop offset="0.37" stop-color="#e6f3fb"/><stop offset="0.49" stop-color="#f2f8fd"/><stop offset="0.64" stop-color="#f9fbff"/><stop offset="1" stop-color="#fbfcff"/></linearGradient><linearGradient id="linear-gradient-3" x1="141.07" y1="55" x2="140.66" y2="12.04" xlink:href="#linear-gradient"/><linearGradient id="linear-gradient-4" x1="127.22" y1="36.78" x2="126.95" y2="8.04" xlink:href="#linear-gradient"/></defs><g id="圖層_2" data-name="圖層 2"><g id="Layer_2" data-name="Layer 2"><rect class="cls-1" y="0.15" width="188.39" height="120.58"/><path class="cls-2" d="M49.54,67.72V61.77h1.25a4.5,4.5,0,0,1,1.42.18,2.54,2.54,0,0,1,1,.59,2.85,2.85,0,0,1,.92,2.2,2.81,2.81,0,0,1-1,2.22,2.84,2.84,0,0,1-1,.59,4.57,4.57,0,0,1-1.4.17Zm.9-.85h.4a3.63,3.63,0,0,0,1-.12,2.12,2.12,0,0,0,.72-.43,2.23,2.23,0,0,0,0-3.16,2.49,2.49,0,0,0-1.74-.55h-.4Z"/><path class="cls-2" d="M58.52,66.05H55.83a1.11,1.11,0,0,0,.3.73,1,1,0,0,0,1.22.12,2.52,2.52,0,0,0,.47-.57l.73.41a2.7,2.7,0,0,1-.36.49,1.81,1.81,0,0,1-.4.34,1.5,1.5,0,0,1-.47.19,2.21,2.21,0,0,1-.54.07,1.77,1.77,0,0,1-1.35-.54,2,2,0,0,1-.51-1.44,2.09,2.09,0,0,1,.5-1.45,1.87,1.87,0,0,1,2.62,0,2.06,2.06,0,0,1,.48,1.45Zm-.89-.71a.83.83,0,0,0-.88-.7.93.93,0,0,0-.29,0,.81.81,0,0,0-.45.36,1.1,1.1,0,0,0-.12.29Z"/><path class="cls-2" d="M62.69,64.62h2.46v.2A4.21,4.21,0,0,1,65,66a2.57,2.57,0,0,1-.52.9,2.7,2.7,0,0,1-2.11.93,2.92,2.92,0,0,1-2.14-.9,3.11,3.11,0,0,1,2.22-5.28,3,3,0,0,1,1.3.29,3.75,3.75,0,0,1,1.14.92l-.64.62a2.18,2.18,0,0,0-3.37-.33,2.2,2.2,0,0,0-.63,1.61A2.24,2.24,0,0,0,62.39,67a1.79,1.79,0,0,0,1.19-.45,1.59,1.59,0,0,0,.59-1.08H62.69Z"/><path class="cls-2" d="M66.11,64H67v.33A1.45,1.45,0,0,1,67.4,64a.91.91,0,0,1,.45-.1,1.41,1.41,0,0,1,.71.23l-.39.79a.85.85,0,0,0-.49-.18c-.47,0-.7.36-.7,1.07v2h-.87Z"/><path class="cls-2" d="M71.77,64h.87v3.75h-.87v-.4a1.65,1.65,0,0,1-2.44-.06,2.11,2.11,0,0,1-.5-1.43,2.08,2.08,0,0,1,.5-1.41,1.65,1.65,0,0,1,1.27-.56,1.6,1.6,0,0,1,1.17.54Zm-2.06,1.86a1.33,1.33,0,0,0,.29.88,1,1,0,0,0,.75.34,1,1,0,0,0,.78-.33,1.45,1.45,0,0,0,0-1.74,1,1,0,0,0-.77-.34A1,1,0,0,0,70,65,1.24,1.24,0,0,0,69.71,65.83Z"/><path class="cls-2" d="M74.27,64l1,2.1,1-2.1h1l-2,4L73.3,64Z"/><path class="cls-2" d="M81.05,66.05H78.36a1.11,1.11,0,0,0,.3.73.93.93,0,0,0,.68.27.91.91,0,0,0,.54-.15,2.52,2.52,0,0,0,.47-.57l.73.41a3.25,3.25,0,0,1-.35.49,1.85,1.85,0,0,1-.41.34,1.54,1.54,0,0,1-.46.19,2.36,2.36,0,0,1-.55.07A1.77,1.77,0,0,1,78,67.29a2.36,2.36,0,0,1,0-2.89,1.88,1.88,0,0,1,2.63,0,2.11,2.11,0,0,1,.47,1.45Zm-.89-.71a.83.83,0,0,0-.87-.7.94.94,0,0,0-.3,0,.77.77,0,0,0-.25.14.85.85,0,0,0-.2.22,1.1,1.1,0,0,0-.12.29Z"/><path class="cls-2" d="M40,67.67l-.42.41-2.28-2.29-.43-.43-4.45-4.44-1.57-1.57A7.54,7.54,0,0,0,32,70.26l-.43.43a8.13,8.13,0,0,1-1.1-11.75c.13-.15.26-.29.4-.43Z"/><path class="cls-2" d="M42.64,64.33a5.94,5.94,0,0,1-1.31,3.73,4.6,4.6,0,0,1-.41.47h0l-.43.4A6.19,6.19,0,0,1,38.57,70a6.3,6.3,0,0,1-1.14.27,7,7,0,0,1-.79,0,6,6,0,0,1-2.44-.52l.43-.43a5.36,5.36,0,0,0,2,.38,5.3,5.3,0,0,0,3.3-1.12l.13-.11a3.28,3.28,0,0,0,.43-.4h0a3.63,3.63,0,0,0,.41-.47A5.32,5.32,0,0,0,42,64.35a5.41,5.41,0,0,0-8.7-4.28l-.44-.44a6,6,0,0,1,9.74,4.7Z"/><polygon class="cls-2" points="42.64 70.27 42.23 70.68 40.96 69.42 41.37 69.01 41.97 69.6 42.4 70.03 42.64 70.27"/><rect class="cls-3" x="161.76" width="13.79" height="119.13"/><rect class="cls-4" x="147.97" width="13.79" height="49.52"/><rect class="cls-5" x="134.18" width="13.79" height="110.06"/><rect class="cls-6" x="120.33" width="13.79" height="73.61"/></g></g></svg>