<svg xmlns="http://www.w3.org/2000/svg" viewBox="0 0 87.84 87.84"><defs><style>.cls-1{fill:#a0d2e3;}.cls-2{fill:none;stroke:#55b9dd;stroke-miterlimit:10;}</style></defs><g id="圖層_2" data-name="圖層 2"><g id="Layer_2" data-name="Layer 2"><path class="cls-1" d="M61.14,57.54,59.5,59.18l-9-9.06-1.71-1.7L31.12,30.8l-6.23-6.23a29.92,29.92,0,0,0,4.45,43.24l-1.72,1.73A32.27,32.27,0,0,1,23.28,23c.51-.58,1-1.14,1.58-1.68Z"/><path class="cls-1" d="M71.44,44.31A23.71,23.71,0,0,1,64.64,61l0,0a22.76,22.76,0,0,1-1.7,1.56,23.78,23.78,0,0,1-7.58,4.26,23.51,23.51,0,0,1-4.53,1,22.92,22.92,0,0,1-3.12.21A23.44,23.44,0,0,1,38,66l1.7-1.71a21.48,21.48,0,0,0,14,.67,21.5,21.5,0,0,0,7.07-3.6c.17-.14.35-.29.53-.42A23.06,23.06,0,0,0,63,59.4l0,0a21.9,21.9,0,0,0,1.61-1.86,21.43,21.43,0,0,0-30.05-30l-1.73-1.73a23.77,23.77,0,0,1,38.57,18.6Z"/><polygon class="cls-1" points="71.45 67.85 69.81 69.49 64.81 64.48 66.44 62.85 68.79 65.2 70.5 66.91 71.45 67.85"/><circle class="cls-2" cx="43.92" cy="43.92" r="43.42"/></g></g></svg>