<svg xmlns="http://www.w3.org/2000/svg" viewBox="0 0 45.98 26.08"><defs><style>.cls-1{fill:#418bcb;}.cls-2{fill:#2669b2;}.cls-3{fill:#7ec7ee;}</style></defs><g id="圖層_2" data-name="圖層 2"><g id="圖層_1-2" data-name="圖層 1"><path class="cls-1" d="M23,8.65a.78.78,0,0,0,.15-.1l5.25-5.94L30.6.07,30.68,0l.64.72,2.48,2.8,3.54,4,1,1.13c-.09.12-.16.24-.25.35s-.37.41-.55.61l-1.33,1.52-.91,1L34,13.61l-.91,1-1.8,2-.59.71L29.6,18.62l-2.42,2.73q-1.91,2.17-3.83,4.33l-.36.4-.17-.16-2.33-2.64L18,20.49l-2.66-3a.47.47,0,0,1-.07-.12,2.12,2.12,0,0,1,.23-.35c.24-.28.5-.54.74-.8l1.15-1.29c.18-.2.37-.4.55-.61.46-.51.91-1,1.36-1.54l1.05-1.15.48-.54c.32-.35.62-.72.94-1.07l1-1.1A1.2,1.2,0,0,0,23,8.65"/><path class="cls-2" d="M23,8.65a1.2,1.2,0,0,1-.16.27l-1,1.1c-.32.35-.62.72-.94,1.07l-.48.54-1.05,1.15c-.45.51-.9,1-1.36,1.54-.18.21-.37.41-.55.61l-1.15,1.29c-.24.26-.5.52-.74.8a2.12,2.12,0,0,0-.23.35.81.81,0,0,0-.21.1,11.37,11.37,0,0,1-2.18,1.46A11.28,11.28,0,0,1,9.61,20a10.83,10.83,0,0,1-2.2.18A11.45,11.45,0,0,1,.07,17.41.23.23,0,0,1,0,17.34C.09,17.17,14.86.43,15.31,0c.23.26.47.52.7.79,1.33,1.49,2.65,3,4,4.48l3,3.37"/><path class="cls-3" d="M30.73,17.36l.59-.71,1.8-2,.91-1,1.27-1.46.91-1,1.33-1.52c.18-.2.37-.4.55-.61s.16-.23.25-.35l2.39,2.71,1.7,1.9,2.34,2.66,1.14,1.3.07.09a2.54,2.54,0,0,1-.29.28A11.45,11.45,0,0,1,40.51,20c-.47.09-.95.12-1.42.17-.25,0-.5,0-.75,0a12.74,12.74,0,0,1-3.19-.46,11.73,11.73,0,0,1-4-2.05l-.45-.36"/></g></g></svg>